HIERARCHY
ROOT Hips
{
	OFFSET 0.00 0.00 0.00
	CHANNELS 6 Xposition Yposition Zposition Xrotation Yrotation Zrotation
	JOINT LeftUpLeg
	{
		OFFSET 4.29448 0.00000 0.00000
		CHANNELS 3 Xrotation Yrotation Zrotation
		JOINT LeftLeg
		{
			OFFSET 0.00000 -19.20276 0.00000
			CHANNELS 3 Xrotation Yrotation Zrotation
			JOINT LeftFoot
			{
				OFFSET -0.02174 -15.68217 -0.01872
				CHANNELS 3 Xrotation Yrotation Zrotation
				JOINT LeftToeBase
				{
					OFFSET 0.04083 -0.34615 6.18044
					CHANNELS 3 Xrotation Yrotation Zrotation
					End Site
					{
						OFFSET 0.01735 0.60354 2.89036
					}
				}
			}
		}
	}
	JOINT RightUpLeg
	{
		OFFSET -4.29448 0.00000 0.00000
		CHANNELS 3 Xrotation Yrotation Zrotation
		JOINT RightLeg
		{
			OFFSET -0.00000 -19.20276 0.46564
			CHANNELS 3 Xrotation Yrotation Zrotation
			JOINT RightFoot
			{
				OFFSET 0.03510 -15.68217 0.03397
				CHANNELS 3 Xrotation Yrotation Zrotation
				JOINT RightToeBase
				{
					OFFSET -0.09359 -0.35473 6.17938
					CHANNELS 3 Xrotation Yrotation Zrotation
					End Site
					{
						OFFSET -0.06574 -1.30919 2.64583
					}
				}
			}
		}
	}
	JOINT Spine
	{
		OFFSET 0.00000 0.03937 0.00000
		CHANNELS 3 Xrotation Yrotation Zrotation
		JOINT Spine1
		{
			OFFSET 0.00000 8.13660 0.00000
			CHANNELS 3 Xrotation Yrotation Zrotation
			JOINT Neck
			{
				OFFSET -0.08254 7.72853 -1.10446
				CHANNELS 3 Xrotation Yrotation Zrotation
				JOINT Head
				{
					OFFSET 0.00000 7.64180 0.00000
					CHANNELS 3 Xrotation Yrotation Zrotation
					End Site
					{
						OFFSET 0.00000 4.52755 0.00000
					}
				}
			}
			JOINT LeftShoulder
			{
				OFFSET -0.08254 7.72853 -1.10446
				CHANNELS 3 Xrotation Yrotation Zrotation
				JOINT LeftArm
				{
					OFFSET 7.63573 -0.00003 0.00000
					CHANNELS 3 Xrotation Yrotation Zrotation
					JOINT LeftForeArm
					{
						OFFSET 10.90838 -0.00004 1.45735
						CHANNELS 3 Xrotation Yrotation Zrotation
						JOINT LeftHand
						{
							OFFSET 9.96262 -0.00004 0.00000
							CHANNELS 3 Xrotation Yrotation Zrotation
							JOINT LeftHandThumb
							{
								OFFSET 0.00000 0.00000 0.00000
								CHANNELS 3 Xrotation Yrotation Zrotation
								End Site
								{
									OFFSET -1.40617 0.22370 3.67051
								}
							}
							JOINT L_Wrist_End
							{
								OFFSET 3.67519 0.21920 1.39461
								CHANNELS 3 Xrotation Yrotation Zrotation
							}
						}
					}
				}
			}
			JOINT RightShoulder
			{
				OFFSET -0.08254 7.72853 -1.10446
				CHANNELS 3 Xrotation Yrotation Zrotation
				JOINT RightArm
				{
					OFFSET -7.63573 -0.00003 0.00000
					CHANNELS 3 Xrotation Yrotation Zrotation
					JOINT RightForeArm
					{
						OFFSET -10.90838 -0.00004 0.00000
						CHANNELS 3 Xrotation Yrotation Zrotation
						JOINT RightHand
						{
							OFFSET -9.96262 -0.00004 0.00000
							CHANNELS 3 Xrotation Yrotation Zrotation
							JOINT RightHandThumb
							{
								OFFSET 0.00000 0.00000 0.00000
								CHANNELS 3 Xrotation Yrotation Zrotation
								End Site
								{
									OFFSET 0.00000 0.00000 3.93700
								}
							}
							JOINT R_Wrist_End
							{
								OFFSET -5.39369 -0.00002 0.00000
								CHANNELS 3 Xrotation Yrotation Zrotation
							}
						}
					}
				}
			}
		}
	}
}
MOTION
Frames: 6
Frame Time: 0.008333
 14.0160 -45.0299 33.1638 -110.4007 8.2985 -168.5037 -61.9656 13.8677 -1.1543 99.6717 -0.0000 0.0000 -14.1329 -7.7145 -14.3235 35.5346 0.0067 -0.2400 1.3022 5.9120 -10.6172 32.4321 -0.0000 0.0000 -7.4082 -3.0811 14.6792 -44.1331 1.1094 -0.1947 11.6189 6.4401 -13.5988 -9.8942 4.5883 -5.3168 14.3951 1.1144 -2.6865 -26.8555 -2.1684 5.1004 -3.2459 3.8828 21.2120 43.8336 -22.1372 -56.7278 -179.9994 -69.1639 -179.9992 -1.4124 25.2586 -34.8542 -0.0000 0.0000 -0.0000 -0.0000 0.0000 -0.0000 -13.2688 6.3162 -0.5282 -22.4573 0.9551 67.7246 -179.9991 77.4984 179.9988 -0.7809 9.3765 7.8017 -0.0000 -0.0000 0.0000 -0.0000 -0.0000 0.0000
 14.0473 -44.0403 33.4787 -110.5429 7.9932 -167.6433 -62.5318 14.5605 -1.4995 94.7776 -0.0000 0.0000 -14.0080 -7.2089 -14.5777 35.9227 0.0060 -0.2426 3.6469 5.9049 -11.7253 29.2194 -0.0000 0.0000 -2.9555 -2.9479 14.2822 -43.9990 1.1059 -0.1954 11.3431 6.9959 -14.4612 -9.3235 5.2898 -6.3341 14.5868 0.6045 -2.1492 -26.9963 -3.1179 6.0174 -3.1398 2.5438 22.9499 44.5360 -22.3268 -57.1162 -179.9995 -68.0766 -179.9992 -1.8760 25.6024 -33.9404 -0.0000 0.0000 -0.0000 -0.0000 0.0000 -0.0000 -13.2305 5.8882 -0.5264 -22.4964 1.2363 66.7640 -179.9993 74.3175 179.9990 -0.3702 9.6686 6.8998 -0.0000 -0.0000 0.0000 -0.0000 -0.0000 0.0000
 14.0796 -43.0218 33.8009 -110.6575 7.6559 -166.9571 -62.7283 15.1426 -1.8574 89.5495 -0.0000 0.0000 -13.8573 -6.7782 -14.9972 36.6613 0.0045 -0.2474 5.8814 5.7536 -12.6342 26.0493 -0.0000 0.0000 2.4748 -2.8453 14.3095 -43.8727 1.1027 -0.1961 11.0451 7.4427 -15.2100 -8.8372 5.9141 -7.2296 14.8118 0.1626 -1.6923 -26.9673 -3.9432 7.0078 -2.8468 1.2836 24.5157 45.0706 -22.5069 -57.8665 -179.9995 -67.4357 -179.9992 -2.9366 25.1701 -33.1947 -0.0000 0.0000 -0.0000 -0.0000 0.0000 -0.0000 -13.2995 5.3578 -0.2833 -22.1603 1.9382 65.8055 -179.9994 71.6931 179.9991 1.0883 10.0114 5.9414 -0.0000 0.0000 -0.0000 -0.0000 0.0000 -0.0000
 14.1074 -41.9876 34.1206 -110.7235 7.2870 -166.5922 -62.5859 15.4286 -2.2265 84.0492 -0.0000 0.0000 -13.7692 -6.2996 -15.5140 37.8962 0.0019 -0.2555 7.9167 5.1763 -13.1985 22.8326 -0.0000 0.0000 8.6053 -2.7887 15.2975 -43.0504 1.0816 -0.2004 10.7073 7.6927 -15.7857 -8.5466 6.2463 -7.7661 15.1281 0.1466 -1.6036 -26.7217 -4.7237 8.3655 -2.4654 0.3539 25.7653 45.5931 -22.5426 -58.8973 -179.9995 -66.9494 -179.9993 -3.0162 24.7598 -32.0110 -0.0000 0.0000 -0.0000 -0.0000 0.0000 -0.0000 -13.4108 4.9859 0.1195 -21.4933 3.1713 64.9391 -179.9994 69.8314 179.9992 1.3683 10.7249 5.1592 -0.0000 0.0000 -0.0000 -0.0000 0.0000 -0.0000
 14.1334 -40.9303 34.4392 -110.7501 6.9141 -166.4019 -62.0895 15.6579 -2.5847 78.2342 -0.0000 0.0000 -13.3805 -6.1175 -15.5798 39.1373 -0.0009 -0.2636 9.8572 4.0966 -13.5638 19.3143 -0.0000 0.0000 14.3411 -2.3122 16.8450 -38.1410 0.9547 -0.2195 10.4887 7.8754 -16.2581 -8.6544 6.5818 -8.1686 15.6533 -0.0856 -1.3809 -26.3181 -5.2070 9.4273 -1.9035 -0.4939 26.7877 46.0180 -22.6162 -59.9516 -179.9995 -66.7384 -179.9993 -3.7280 24.8609 -32.4926 -0.0000 0.0000 -0.0000 -0.0000 0.0000 -0.0000 -13.4015 4.5506 0.5651 -20.4473 4.3212 64.3103 -179.9995 68.3113 179.9992 1.8251 10.4318 5.5638 -0.0000 0.0000 -0.0000 -0.0000 0.0000 -0.0000
 14.1505 -39.8643 34.7457 -110.7679 6.5114 -166.6311 -61.4344 15.5359 -2.8498 72.2193 -0.0000 0.0000 -12.8494 -5.9984 -15.4239 40.2239 -0.0035 -0.2706 11.6328 2.6612 -13.4850 15.7829 -0.0000 0.0000 18.8355 -1.4943 17.5154 -33.0105 0.8207 -0.2278 10.1398 7.9819 -16.2514 -8.7832 6.8338 -8.5164 16.3387 -0.0740 -1.3481 -26.0538 -5.7098 10.5708 -1.3333 -1.1347 27.4552 46.4077 -22.5514 -60.8624 -179.9995 -66.6325 -179.9993 -3.6742 24.5595 -31.3341 -0.0000 0.0000 -0.0000 -0.0000 0.0000 -0.0000 -13.3875 4.1733 1.0555 -19.1445 5.6724 63.9056 -179.9995 67.4495 179.9992 2.7897 10.5568 5.6115 -0.0000 0.0000 -0.0000 -0.0000 0.0000 -0.0000
